<?xml version="1.0" standalone="no"?>
<!DOCTYPE svg PUBLIC "-//W3C//DTD SVG 20010904//EN"
 "http://www.w3.org/TR/2001/REC-SVG-20010904/DTD/svg10.dtd">
<svg version="1.0" xmlns="http://www.w3.org/2000/svg"
 width="2320.000000pt" height="575.000000pt" viewBox="0 0 2320.000000 575.000000"
 preserveAspectRatio="xMidYMid meet">

<g transform="translate(0.000000,575.000000) scale(0.100000,-0.100000)"
fill="#000000" stroke="none">
<path d="M2680 5614 c-442 -38 -828 -154 -1175 -353 -621 -356 -1071 -927
-1273 -1616 -155 -525 -139 -1141 44 -1666 305 -877 1068 -1562 1965 -1763
237 -53 314 -61 619 -61 305 0 377 7 620 61 667 149 1279 575 1666 1160 485
734 586 1687 264 2503 -364 922 -1175 1567 -2155 1711 -134 20 -466 34 -575
24z m60 -1177 c0 -538 2 -615 16 -635 14 -20 24 -22 101 -22 66 0 91 4 105 17
17 15 18 48 18 636 l0 619 78 -7 c854 -78 1593 -666 1861 -1480 150 -456 150
-922 0 -1369 -17 -50 -34 -95 -39 -100 -5 -5 -231 119 -534 293 -399 230 -532
302 -552 299 -21 -2 -36 -17 -65 -63 -41 -66 -49 -113 -21 -137 9 -9 247 -147
527 -308 281 -161 518 -298 527 -305 15 -10 12 -19 -34 -97 -162 -275 -416
-540 -693 -721 -244 -159 -584 -285 -885 -328 -141 -20 -468 -18 -605 5 -581
94 -1074 388 -1419 846 -88 117 -180 267 -173 283 3 7 242 149 532 316 306
176 533 314 542 327 14 22 13 28 -12 76 -45 87 -64 108 -93 108 -23 0 -346
-182 -1039 -586 l-42 -24 -45 139 c-82 254 -112 475 -103 740 6 183 23 300 66
467 197 755 792 1355 1541 1553 135 36 310 66 403 70 l37 1 0 -613z"/>
<path d="M2360 4858 c-173 -52 -366 -142 -507 -235 -423 -282 -706 -722 -789
-1229 -24 -144 -24 -428 0 -569 35 -211 65 -285 116 -285 8 0 195 103 415 230
249 143 410 230 427 230 36 0 49 -18 209 -298 129 -228 133 -235 118 -260 -10
-19 -131 -94 -412 -257 -219 -127 -402 -237 -407 -245 -28 -44 -4 -81 130
-198 713 -623 1795 -596 2468 62 59 58 72 76 72 102 0 17 -8 38 -17 46 -10 8
-189 113 -398 233 -209 120 -388 226 -399 236 -10 9 -18 28 -18 41 0 23 255
481 290 521 8 9 27 17 42 17 17 0 176 -86 426 -230 219 -126 408 -230 420
-230 47 0 72 59 105 250 146 840 -298 1661 -1078 1992 -117 49 -271 98 -310
98 -13 0 -32 -9 -43 -20 -20 -20 -20 -33 -20 -640 0 -607 0 -620 -20 -640 -19
-19 -33 -20 -319 -20 l-300 0 -20 26 c-21 26 -21 35 -21 644 0 585 -1 618 -18
633 -24 21 -60 20 -142 -5z"/>
<path d="M12991 4479 c-563 -59 -1035 -379 -1272 -864 -141 -288 -194 -597
-158 -923 77 -710 542 -1233 1229 -1380 314 -68 665 -50 962 49 214 72 461
215 600 349 64 61 70 71 64 96 -9 35 -321 481 -346 494 -35 19 -57 9 -168 -75
-253 -191 -532 -283 -778 -255 -208 23 -379 103 -516 243 -231 234 -326 611
-238 948 77 299 279 511 564 593 305 89 627 25 946 -188 90 -60 104 -64 137
-41 33 23 313 487 313 519 0 35 -45 77 -171 161 -323 217 -750 317 -1168 274z"/>
<path d="M6402 4430 c-12 -5 -27 -21 -32 -36 -7 -17 -9 -550 -8 -1531 l3
-1505 25 -20 c24 -19 37 -20 675 -15 538 3 666 7 745 20 416 71 676 238 804
519 56 123 71 202 71 378 0 177 -12 236 -74 365 -69 145 -190 260 -336 320
-33 13 -61 27 -62 32 -2 4 17 21 42 36 81 51 172 161 225 272 62 127 80 211
80 362 0 150 -18 235 -74 348 -113 230 -334 373 -671 437 -103 19 -153 21
-750 24 -393 2 -649 0 -663 -6z m1228 -664 c60 -22 125 -88 145 -145 36 -105
8 -245 -62 -313 -75 -71 -81 -73 -350 -76 l-243 -3 0 274 c0 150 3 277 8 281
4 4 108 6 232 4 181 -4 234 -8 270 -22z m112 -1174 c108 -54 170 -158 171
-287 0 -104 -24 -168 -92 -236 -89 -89 -112 -94 -431 -94 l-265 0 -3 323 -2
323 287 -3 c278 -3 290 -4 335 -26z"/>
<path d="M9227 4419 l-27 -20 0 -1517 c0 -834 4 -1522 8 -1528 22 -33 45 -34
1002 -34 l951 0 24 25 25 24 0 281 c0 267 -1 281 -20 300 -20 20 -33 20 -625
20 l-605 0 0 300 0 300 455 0 c442 0 456 1 475 20 19 19 20 33 20 299 0 260
-1 280 -19 302 l-19 24 -456 3 -456 3 0 284 0 285 573 0 c479 0 576 2 593 14
18 14 19 31 22 299 3 269 2 285 -17 308 l-19 24 -930 3 c-929 2 -929 2 -955
-19z"/>
<path d="M14960 4427 l-25 -13 -3 -1531 c-2 -1414 -1 -1532 14 -1544 14 -11
84 -15 338 -17 177 -2 331 0 343 3 55 13 53 -16 53 661 0 362 4 624 9 624 5 0
221 -286 481 -635 259 -349 480 -639 490 -645 12 -6 161 -10 392 -10 403 0
418 2 418 53 0 14 -219 307 -565 759 -311 405 -565 742 -565 748 0 6 254 342
565 748 348 454 565 745 565 759 0 51 -15 53 -418 53 -228 0 -381 -4 -392 -10
-10 -5 -231 -296 -490 -645 -259 -349 -476 -637 -481 -640 -5 -4 -9 238 -9
622 0 345 -4 633 -8 639 -20 31 -54 34 -369 34 -236 0 -324 -4 -343 -13z"/>
<path d="M18006 4419 l-26 -20 0 -1519 0 -1519 26 -20 c27 -21 31 -21 981 -21
l954 0 24 25 25 24 0 279 c0 224 -3 282 -14 298 -14 18 -35 19 -623 24 l-608
5 0 295 0 295 398 5 c339 4 399 7 407 20 11 18 13 579 2 597 -18 29 -70 33
-438 33 l-374 0 2 283 3 282 578 5 c558 5 579 6 593 24 11 16 14 74 14 298 l0
279 -25 24 -24 25 -924 0 c-920 0 -924 0 -951 -21z"/>
<path d="M20623 4430 c-12 -5 -26 -18 -32 -29 -8 -14 -11 -479 -11 -1526 l0
-1506 25 -24 24 -25 329 0 c318 0 330 1 356 21 l26 20 0 505 0 504 183 0 182
-1 270 -514 c196 -373 276 -517 293 -524 31 -15 746 -15 773 -1 12 7 19 21 19
40 0 20 -97 203 -296 562 -163 293 -316 564 -340 601 -24 37 -44 69 -44 71 0
2 24 18 53 34 215 124 380 415 405 716 29 341 -68 632 -276 828 -117 110 -269
188 -435 222 -43 9 -153 21 -245 26 -207 12 -1229 12 -1259 0z m1096 -650
c246 -28 340 -119 349 -337 9 -210 -67 -336 -238 -395 -59 -21 -83 -23 -275
-23 l-210 0 -3 370 c-1 203 0 376 3 382 6 16 247 18 374 3z"/>
</g>
</svg>
